<svg xmlns="http://www.w3.org/2000/svg" width="794.795" height="318.502" viewBox="0 0 794.795 318.502">
  <g id="Path_1" data-name="Path 1" transform="translate(16.763 15.226)" fill="#47c5fb">
    <path d="M 226.3159942626953 302.7759704589844 C 199.1490020751953 302.7759704589844 170.355224609375 300.6078491210938 140.7346649169922 296.3317565917969 C 117.0356674194336 292.9105224609375 92.75766754150391 288.1399536132812 68.57522583007812 282.1526184082031 C 47.06000137329102 276.8257446289062 29.60611152648926 271.501953125 18.75277900695801 267.9738464355469 C 8.94193172454834 264.7845764160156 2.616653442382812 262.4506225585938 0.7537772059440613 261.7507934570312 C 1.514025807380676 260.5402221679688 3.470574378967285 257.2879943847656 5.756444931030273 252.4261932373047 C 7.47444486618042 248.77197265625 9.042333602905273 244.9320831298828 10.41666698455811 241.01318359375 C 12.13444519042969 236.1148529052734 13.55288887023926 231.0781860351562 14.63266754150391 226.0430755615234 C 17.38177871704102 213.2236328125 17.97900009155273 200.3364105224609 16.40788841247559 187.7393035888672 C 15.47500038146973 180.2592926025391 13.75722312927246 172.80029296875 11.30222225189209 165.5694122314453 C 8.602556228637695 157.6176300048828 4.94444465637207 149.745849609375 0.4294448792934418 142.1727447509766 C -4.047666072845459 134.6630706787109 -7.674888610839844 126.5287475585938 -10.35177707672119 117.9955215454102 C -12.7859992980957 110.2354125976562 -14.4894437789917 101.9706344604492 -15.41466617584229 93.43096923828125 C -16.9738883972168 79.03963470458984 -16.38044357299805 63.61119079589844 -13.65088844299316 47.57429885864258 C -11.22133255004883 33.30018997192383 -7.514110565185547 21.17852210998535 -4.831999778747559 13.52330017089844 C -2.438376665115356 6.691442489624023 -0.4173159897327423 2.114284515380859 0.2324003875255585 0.6885558366775513 C 1.91295325756073 1.570197820663452 8.048031806945801 4.727693557739258 17.79177856445312 9.061188697814941 C 28.39322280883789 13.77618885040283 45.56388854980469 20.89085578918457 67.15988922119141 28.00896644592285 C 91.43233489990234 36.00918960571289 116.2347793579102 42.38374328613281 140.8780059814453 46.95541000366211 C 155.5107727050781 49.66996765136719 170.2494506835938 51.77074432373047 184.6846618652344 53.19952392578125 C 200.5644378662109 54.77119064331055 216.4695587158203 55.56818771362305 231.9583282470703 55.56818771362305 C 244.2023315429688 55.56818771362305 256.4644470214844 55.0700798034668 268.4041137695312 54.0876350402832 C 281.0339965820312 53.04841232299805 293.649658203125 51.43874359130859 305.9004516601562 49.30329895019531 C 318.8025512695312 47.05429840087891 331.656005859375 44.16007614135742 344.1036682128906 40.70107650756836 C 357.1637878417969 37.07196807861328 370.1392211914062 32.72041320800781 382.66943359375 27.76729965209961 C 402.7928771972656 19.812744140625 423.88623046875 12.86918926239014 445.3635559082031 7.12963342666626 C 465.1466674804688 1.842744588851929 485.7254333496094 -2.548588752746582 506.5281066894531 -5.922366619110107 C 542.5491333007812 -11.76414394378662 580.1271362304688 -14.7261438369751 618.2184448242188 -14.7261438369751 C 637.9638671875 -14.7261438369751 657.9622192382812 -13.92625522613525 677.6578979492188 -12.34869956970215 C 693.4141235351562 -11.08658885955811 709.0127563476562 -9.326922416687012 724.0206909179688 -7.118366241455078 C 747.8005981445312 -3.619001626968384 762.5807495117188 -0.07950735092163086 764.63232421875 0.4239419400691986 C 765.0357055664062 1.429497838020325 766.68359375 5.6346116065979 768.6525268554688 11.9948558807373 C 770.7372436523438 18.72885513305664 773.6183471679688 29.32496643066406 775.5055541992188 41.56341171264648 C 777.625 55.30774307250977 778.0846557617188 68.28052520751953 776.8720092773438 80.12107849121094 C 776.1526489257812 87.14385223388672 774.829345703125 93.84085845947266 772.9389038085938 100.0261917114258 C 770.8610229492188 106.8241882324219 768.0462036132812 113.1720809936523 764.5725708007812 118.8937454223633 C 761.0525512695312 124.6917419433594 758.2017822265625 131.4647521972656 756.0993041992188 139.0245208740234 C 754.1909790039062 145.8863067626953 752.8560180664062 153.5510711669922 752.1312255859375 161.8057403564453 C 750.912109375 175.6919708251953 751.3751220703125 191.4864044189453 753.507568359375 208.7503051757812 C 754.55419921875 217.2236328125 756.597900390625 230.6663055419922 760.3900146484375 246.5881958007812 C 762.1087036132812 253.8042755126953 763.5845947265625 258.9833374023438 764.20703125 261.0957946777344 C 762.1675415039062 260.1916198730469 757.0791625976562 257.9906311035156 749.5143432617188 255.0838623046875 C 740.31689453125 251.5497436523438 725.466552734375 246.2168579101562 706.951416015625 240.8815155029297 C 686.1415405273438 234.8847503662109 665.037109375 230.1067504882812 644.2245483398438 226.6799621582031 C 618.2061157226562 222.3960723876953 592.5723266601562 220.2239685058594 568.0353393554688 220.2239685058594 C 505.5527648925781 220.2239685058594 449.7114562988281 234.1336364746094 402.0626525878906 261.5666198730469 C 354.5675659179688 288.9111938476562 295.4377746582031 302.7759704589844 226.3159942626953 302.7759704589844 Z" stroke="none"/>
    <path d="M 618.2184448242188 -15.22613525390625 L 618.2184448242188 -14.22613525390625 C 580.1533203125 -14.22592163085938 542.6022338867188 -11.26593017578125 506.6082153320312 -5.4285888671875 C 485.8218994140625 -2.057586669921875 465.2596740722656 2.3302001953125 445.49267578125 7.612640380859375 C 424.0337829589844 13.347412109375 402.9588928222656 20.28475952148438 382.8532104492188 28.2322998046875 C 370.3067932128906 33.19174194335938 357.3145446777344 37.54898071289062 344.237548828125 41.182861328125 C 331.7741088867188 44.64630126953125 318.9044494628906 47.5440673828125 305.986328125 49.79586791992188 C 293.7206726074219 51.93385314941406 281.0899963378906 53.54551696777344 268.4450988769531 54.58596801757812 C 256.4918823242188 55.56951904296875 244.2158813476562 56.06819152832031 231.9583129882812 56.06819152832031 C 216.4532470703125 56.06819152832031 200.5314331054688 55.27041625976562 184.6354370117188 53.69708251953125 C 170.1862182617188 52.2669677734375 155.433349609375 50.1641845703125 140.786865234375 47.44696044921875 C 116.12158203125 42.87130737304688 91.2972412109375 36.4910888671875 67.00335693359375 28.48385620117188 C 45.3876953125 21.35919189453125 28.2005615234375 14.23773193359375 17.58856201171875 9.51806640625 C 8.58978271484375 5.515899658203125 2.65997314453125 2.512908935546875 0.470458984375 1.37664794921875 C -0.33837890625 3.185455322265625 -2.19525146484375 7.50946044921875 -4.360107421875 13.68862915039062 C -7.035888671875 21.32574462890625 -10.73419189453125 33.41842651367188 -13.15789794921875 47.658203125 C -15.8797607421875 63.64962768554688 -16.4718017578125 79.03163146972656 -14.91754150390625 93.3770751953125 C -13.99578857421875 101.8844146728516 -12.29913330078125 110.1168518066406 -9.87469482421875 117.8458557128906 C -7.20953369140625 126.3418579101562 -3.59820556640625 134.4405212402344 0.85888671875 141.9166259765625 C 5.39178466796875 149.5198516845703 9.06475830078125 157.4237518310547 11.7757568359375 165.4087371826172 C 14.2415771484375 172.6715240478516 15.9669189453125 180.1638488769531 16.90399169921875 187.6774139404297 C 18.48211669921875 200.3302001953125 17.8824462890625 213.2736358642578 15.12158203125 226.1479644775391 C 14.037353515625 231.2035217285156 12.61309814453125 236.2606353759766 10.888427734375 241.1786346435547 C 9.508544921875 245.113525390625 7.93408203125 248.9692993164062 6.2088623046875 252.6388549804688 C 4.16448974609375 256.9871826171875 2.41400146484375 260.0071411132812 1.5018310546875 261.4965515136719 C 3.88909912109375 262.3840637207031 9.9383544921875 264.5828247070312 18.907470703125 267.498291015625 C 29.75299072265625 271.0238647460938 47.194580078125 276.3439636230469 68.6953125 281.6672973632812 C 92.86187744140625 287.650634765625 117.1234741210938 292.41796875 140.8060913085938 295.8368530273438 C 170.4031372070312 300.1095275878906 199.1727905273438 302.2759704589844 226.3159790039062 302.2759704589844 C 295.34912109375 302.2759704589844 354.3948974609375 288.4336242675781 401.8131103515625 261.13330078125 C 449.5388793945312 233.6560668945312 505.464111328125 219.7239685058594 568.0353393554688 219.7239685058594 C 592.5994262695312 219.7239685058594 618.2605590820312 221.8983001708984 644.3057861328125 226.1866302490234 C 665.1376953125 229.6165161132812 686.2613525390625 234.3989562988281 707.0899047851562 240.4010772705078 C 725.6221923828125 245.7414093017578 740.4869995117188 251.0794067382812 749.6936645507812 254.6170806884766 C 756.25341796875 257.1376953125 760.9566040039062 259.129638671875 763.427490234375 260.2070617675781 C 762.697021484375 257.6710815429688 761.3907470703125 252.9475555419922 759.9036865234375 246.7039642333984 C 756.106201171875 230.7598571777344 754.0595703125 217.2975158691406 753.0113525390625 208.8116302490234 C 750.8746948242188 191.5129699707031 750.410888671875 175.6831817626953 751.6331176757812 161.761962890625 C 752.3605346679688 153.4768524169922 753.7011108398438 145.7818603515625 755.61767578125 138.8905181884766 C 757.7323608398438 131.2866363525391 760.6014404296875 124.4714050292969 764.1452026367188 118.6341857910156 C 767.5962524414062 112.9498596191406 770.393310546875 106.6421966552734 772.4588012695312 99.88641357421875 C 774.3396606445312 93.73396301269531 775.6567993164062 87.07118225097656 776.3732299804688 80.08308410644531 C 777.5825805664062 68.2879638671875 777.1255493164062 55.36140441894531 775.014892578125 41.66253662109375 C 773.1339721679688 29.45462036132812 770.2608032226562 18.88296508789062 768.1815795898438 12.1641845703125 C 766.3438720703125 6.2254638671875 764.7861938476562 2.169097900390625 764.2633056640625 0.848663330078125 C 761.4658203125 0.170257568359375 746.8881225585938 -3.249420166015625 723.9122314453125 -6.629150390625 C 708.9183349609375 -8.834808349609375 693.33447265625 -10.59213256835938 677.5934448242188 -11.85235595703125 C 657.9190063476562 -13.42758178710938 637.9423217773438 -14.22625732421875 618.2184448242188 -14.22613525390625 L 618.2184448242188 -15.22613525390625 M 618.2183837890625 -15.22613525390625 C 704.8430786132812 -15.22662353515625 765 -3.0517578125e-05 765 -3.0517578125e-05 C 765 -3.0517578125e-05 794.3231201171875 70.85340881347656 765 119.1531829833984 C 735.6768798828125 167.4529724121094 765 261.9999694824219 765 261.9999694824219 C 765 261.9999694824219 675.4896240234375 220.7239074707031 568.0352783203125 220.7239074707031 C 514.2982788085938 220.7239074707031 456.0884094238281 231.0391540527344 402.3121032714844 261.9999694824219 C 348.545654296875 292.9551086425781 285.9145202636719 303.2760009765625 226.3159790039062 303.2760009765625 C 107.1080322265625 303.2760009765625 0 261.9999694824219 0 261.9999694824219 C 0 261.9999694824219 37.7166748046875 205.6925201416016 0 142.4287414550781 C -37.7166748046875 79.16496276855469 0 -3.0517578125e-05 0 -3.0517578125e-05 C 0 -3.0517578125e-05 102.19091796875 55.06817626953125 231.9583740234375 55.06817626953125 C 279.6476745605469 55.06817626953125 331.043212890625 47.63687133789062 382.4856567382812 27.30230712890625 C 466.5017700195312 -5.908233642578125 550.4583740234375 -15.22573852539062 618.2183837890625 -15.22613525390625 Z" stroke="none" fill="#47c5fb"/>
  </g>
</svg>
