<svg width="247" height="54" viewBox="0 0 247 54" fill="none" xmlns="http://www.w3.org/2000/svg">
<rect y="12" width="48" height="32" rx="4" fill="#212B36"/>
<g opacity="0.01">
<rect x="4.65002" y="15.2" width="38.71" height="25.6" fill="white"/>
</g>
<rect x="18.9" y="19.66" width="10.21" height="16.68" fill="#F26122"/>
<path d="M20 28C19.9831 24.7535 21.4577 21.679 24 19.66C19.6502 16.2393 13.4019 16.736 9.64729 20.801C5.89264 24.866 5.89264 31.134 9.64729 35.199C13.4019 39.264 19.6502 39.7607 24 36.34C21.4577 34.3209 19.9831 31.2465 20 28Z" fill="#EA1D25"/>
<path fill-rule="evenodd" clip-rule="evenodd" d="M40.14 34.23V34.57H40.08V34.23H39.94V34.16H40.29V34.23H40.14ZM40.82 34.16V34.57H40.75V34.26L40.64 34.53H40.56L40.44 34.26V34.57H40.37V34.16H40.47L40.6 34.45L40.72 34.16H40.82Z" fill="#F69E1E"/>
<path d="M41.16 28C41.1574 32.0593 38.8389 35.7614 35.1879 37.5358C31.5369 39.3102 27.1935 38.846 24 36.34C28.6001 32.7179 29.3967 26.0543 25.78 21.45C25.2616 20.7833 24.6638 20.1822 24 19.66C27.1935 17.154 31.5369 16.6897 35.1879 18.4642C38.8389 20.2386 41.1574 23.9406 41.16 28Z" fill="#F69E1E"/>
<path d="M83.7586 28.7908L84.7571 27.46C84.8707 27.3085 84.889 27.1058 84.8043 26.9364C84.7197 26.767 84.5465 26.66 84.3571 26.66H73.5485C73.2723 26.66 73.0485 26.8838 73.0485 27.16V31.9269C73.0485 32.2031 73.2723 32.4269 73.5485 32.4269H93.7021C93.858 32.4269 94.005 32.3543 94.0996 32.2304L99.5487 25.0931C99.6641 24.9419 99.6838 24.7384 99.5995 24.568C99.5152 24.3975 99.3415 24.2896 99.1513 24.2896H92.7342C92.5818 24.2896 92.4378 24.3591 92.3429 24.4784L88.9124 28.7908H83.7586Z" fill="black" stroke="black" stroke-linejoin="round"/>
<path d="M98.1426 25.2896L97.1323 26.6174C97.0172 26.7686 96.9978 26.972 97.0822 27.1422C97.1666 27.3125 97.3402 27.4202 97.5302 27.4202H108.339C108.615 27.4202 108.839 27.1963 108.839 26.9202V22.1795C108.839 21.9034 108.615 21.6795 108.339 21.6795H88.1627C88.0069 21.6795 87.8599 21.7522 87.7653 21.8761L82.3159 29.0134C82.2005 29.1645 82.1808 29.3681 82.2651 29.5385C82.3495 29.709 82.5232 29.8168 82.7133 29.8168H89.1536C89.3064 29.8168 89.4509 29.7469 89.5457 29.627L92.9762 25.2896H98.1426Z" fill="#F8E14B" stroke="black" stroke-linejoin="round"/>
<path d="M83.7586 28.7908L84.7571 27.46C84.8707 27.3085 84.889 27.1058 84.8043 26.9364C84.7197 26.767 84.5465 26.66 84.3571 26.66H73.5485C73.2723 26.66 73.0485 26.8838 73.0485 27.16V31.9269C73.0485 32.2031 73.2723 32.4269 73.5485 32.4269H93.7021C93.858 32.4269 94.005 32.3543 94.0996 32.2304L99.5487 25.0931C99.6641 24.9419 99.6838 24.7384 99.5995 24.568C99.5152 24.3975 99.3415 24.2896 99.1513 24.2896H92.7342C92.5818 24.2896 92.4378 24.3591 92.3429 24.4784L88.9124 28.7908H83.7586Z" fill="black" stroke="black" stroke-linejoin="round"/>
<path d="M98.1426 25.2896L97.1323 26.6174C97.0172 26.7686 96.9978 26.972 97.0822 27.1422C97.1666 27.3125 97.3402 27.4202 97.5302 27.4202H108.339C108.615 27.4202 108.839 27.1963 108.839 26.9202V22.1795C108.839 21.9034 108.615 21.6795 108.339 21.6795H88.1627C88.0069 21.6795 87.8599 21.7522 87.7653 21.8761L82.3159 29.0134C82.2005 29.1645 82.1808 29.3681 82.2651 29.5385C82.3495 29.709 82.5232 29.8168 82.7133 29.8168H89.1536C89.3064 29.8168 89.4509 29.7469 89.5457 29.627L92.9762 25.2896H98.1426Z" fill="#F8E14B" stroke="black" stroke-linejoin="round"/>
<path fill-rule="evenodd" clip-rule="evenodd" d="M71 12H111C113.209 12 115 13.7909 115 16V40C115 42.2091 113.209 44 111 44H71C68.7909 44 67 42.2091 67 40V16C67 13.7909 68.7909 12 71 12ZM113 16C113 14.8954 112.105 14 111 14H71C69.8954 14 69 14.8954 69 16V40C69 41.1046 69.8954 42 71 42H111C112.105 42 113 41.1046 113 40V16Z" fill="#212B36"/>
<rect x="134" y="12" width="48" height="32" rx="4" fill="#212B36"/>
<path fill-rule="evenodd" clip-rule="evenodd" d="M164.35 29.67C164.356 28.1452 163.099 27.4867 162.123 26.9756C161.505 26.6521 161 26.3876 161 26C161 25.67 161.32 25.32 162 25.23C162.809 25.1499 163.625 25.2917 164.36 25.64L164.78 23.64C164.064 23.3714 163.305 23.2325 162.54 23.23C160.18 23.23 158.54 24.49 158.54 26.29C158.54 27.62 159.73 28.36 160.63 28.8C161.53 29.24 161.88 29.55 161.87 29.95C161.87 30.57 161.13 30.85 160.44 30.86C159.589 30.871 158.749 30.6644 158 30.26L157.57 32.26C158.417 32.5908 159.32 32.7571 160.23 32.75C162.74 32.75 164.39 31.51 164.4 29.59L164.35 29.67ZM157.86 23.39L155.86 32.64H153.46L155.46 23.39H157.86ZM167.92 29.39L169.18 25.92L169.91 29.39H167.92ZM172.81 32.67H170.59L170.3 31.29H167.29L166.8 32.67H164.28L167.87 24.1C168.035 23.6922 168.43 23.424 168.87 23.42H170.87L172.81 32.67ZM150.61 32.61L154.49 23.36H151.89L149.4 29.65L148.4 24.3C148.311 23.7563 147.841 23.3578 147.29 23.36H143.22L143.16 23.63C143.976 23.7897 144.769 24.0518 145.52 24.41C145.84 24.5603 146.056 24.8683 146.09 25.22L148 32.61H150.61Z" fill="white"/>
<path d="M213.411 18.6894V38.8288H224.999C235.521 38.8288 240.085 34.3336 240.085 27.9763C240.085 21.8918 235.521 17.1712 224.999 17.1712H215.418C214.305 17.1712 213.411 17.8592 213.411 18.6894Z" fill="#CC0066"/>
<path d="M217.488 25.2602C217.896 25.2602 218.272 25.3076 218.633 25.4025C218.993 25.4974 219.291 25.6516 219.558 25.8414C219.809 26.043 220.013 26.2921 220.17 26.5767C220.311 26.8732 220.389 27.2172 220.389 27.6205C220.389 27.9763 220.326 28.2965 220.217 28.593C220.091 28.8896 219.919 29.1505 219.683 29.364C219.448 29.5775 219.15 29.7435 218.79 29.874C218.429 29.9926 218.006 30.0638 217.519 30.0638H214.775V25.2483H217.488V25.2602ZM217.394 29.1861C217.598 29.1861 217.786 29.1623 217.99 29.1149C218.178 29.0675 218.351 28.9844 218.492 28.8658C218.633 28.7472 218.758 28.6049 218.852 28.4151C218.946 28.2254 218.993 28.0119 218.993 27.7391C218.993 27.5019 218.962 27.2765 218.899 27.0867C218.837 26.897 218.727 26.7191 218.586 26.5886C218.445 26.4581 218.256 26.3395 218.021 26.2684C217.786 26.1972 217.504 26.1616 217.159 26.1616H216.155V29.1979H217.394V29.1861Z" fill="white"/>
<path d="M226.05 25.2602V26.1497H222.694V27.1816H225.783V28H222.694V29.1742H226.128V30.0638H221.299V25.2483H226.05V25.2602Z" fill="white"/>
<path d="M230.848 25.2602L233.232 30.0756H231.774L231.287 29.0082H228.904L228.402 30.0756H226.991L229.39 25.2602H230.848V25.2602ZM230.927 28.2135L230.127 26.4463H230.111L229.28 28.2135H230.927Z" fill="white"/>
<path d="M235.506 25.2602V29.1861H238.611V30.0756H234.11V25.2602H235.506V25.2602Z" fill="white"/>
<path d="M208.173 29.8858C209.793 29.8858 211.106 28.8928 211.106 27.6679C211.106 26.443 209.793 25.45 208.173 25.45C206.554 25.45 205.241 26.443 205.241 27.6679C205.241 28.8928 206.554 29.8858 208.173 29.8858Z" fill="black"/>
<path d="M210.385 38.8288C207.923 38.8288 205.947 37.3225 205.947 35.4722V32.851C205.947 31.9259 206.935 31.1668 208.173 31.1668C209.397 31.1668 210.4 31.914 210.4 32.851V38.8288H210.385Z" fill="black"/>
<path fill-rule="evenodd" clip-rule="evenodd" d="M203 12H243C245.209 12 247 13.7366 247 15.8788V39.1515C247 41.2937 245.209 43.0303 243 43.0303H203C200.791 43.0303 199 41.2937 199 39.1515V15.8788C199 13.7366 200.791 12 203 12ZM245 15.8788C245 14.8077 244.105 13.9394 243 13.9394H203C201.895 13.9394 201 14.8077 201 15.8788V39.1515C201 40.2226 201.895 41.0909 203 41.0909H243C244.105 41.0909 245 40.2226 245 39.1515V15.8788Z" fill="#212B36"/>
</svg>
