<svg width="1152" height="1000" viewBox="0 0 1152 1000" fill="none" xmlns="http://www.w3.org/2000/svg">
<path d="M912.256 655.19H655.994C650.502 655.19 646.052 659.054 646.052 663.82V820.63C646.052 825.397 650.502 829.26 655.994 829.26H912.256C917.746 829.26 922.198 825.397 922.198 820.63V663.82C922.198 659.054 917.746 655.19 912.256 655.19Z" fill="#47C5FB"/>
<path d="M899.331 663.34H668.931C663.44 663.34 658.989 667.204 658.989 671.97V812.48C658.989 817.246 663.44 821.11 668.931 821.11H899.331C904.821 821.11 909.272 817.246 909.272 812.48V671.97C909.272 667.204 904.821 663.34 899.331 663.34Z" fill="#47C5FB"/>
<path d="M1034.79 829.26H942.337C939.693 829.26 937.076 828.808 934.633 827.929C932.191 827.051 929.972 825.763 928.103 824.14C926.234 822.516 924.752 820.589 923.741 818.469C922.73 816.348 922.211 814.075 922.212 811.78V686.65C922.212 685.525 922.47 684.411 922.972 683.374C923.474 682.337 924.211 681.398 925.136 680.611C926.062 679.824 927.16 679.205 928.365 678.791C929.57 678.377 930.858 678.176 932.154 678.2L983.579 678.6C984.961 678.627 986.321 678.908 987.568 679.425C988.815 679.943 989.922 680.684 990.813 681.6L1053.11 745.6C1062.98 754.411 1068.49 766.215 1068.48 778.5V800C1068.48 803.843 1067.61 807.648 1065.92 811.198C1064.23 814.749 1061.75 817.975 1058.62 820.692C1055.49 823.41 1051.77 825.565 1047.69 827.035C1043.6 828.505 1039.21 829.261 1034.79 829.26Z" fill="#47C5FB"/>
<path d="M784.121 792.7C816.232 792.7 842.263 770.104 842.263 742.23C842.263 714.356 816.232 691.76 784.121 691.76C752.012 691.76 725.98 714.356 725.98 742.23C725.98 770.104 752.012 792.7 784.121 792.7Z" fill="#D7E8F0"/>
<path d="M942.336 741.91V699.38C942.336 698.12 942.912 696.912 943.938 696.021C944.965 695.13 946.356 694.63 947.808 694.63H975.306C976.146 694.631 976.973 694.8 977.727 695.122C978.479 695.445 979.137 695.912 979.649 696.49L1017.33 739C1017.96 739.703 1018.34 740.545 1018.44 741.428C1018.54 742.312 1018.36 743.203 1017.91 744C1017.45 744.796 1016.75 745.467 1015.88 745.935C1015.01 746.404 1014.01 746.651 1012.99 746.65H947.843C947.123 746.654 946.407 746.534 945.74 746.298C945.073 746.062 944.467 745.713 943.955 745.273C943.443 744.832 943.036 744.309 942.759 743.732C942.481 743.154 942.337 742.535 942.336 741.91Z" fill="white"/>
<path d="M669.555 828.89V829.23C669.555 839.584 674.293 849.514 682.727 856.835C691.162 864.157 702.601 868.27 714.529 868.27C726.457 868.27 737.896 864.157 746.33 856.835C754.765 849.514 759.503 839.584 759.503 829.23" stroke="#CCDDE2" stroke-width="4.57" stroke-miterlimit="10"/>
<path d="M942.336 829.23C942.336 839.583 947.074 849.512 955.507 856.832C963.941 864.153 975.378 868.266 987.304 868.266C999.231 868.266 1010.67 864.153 1019.1 856.832C1027.53 849.512 1032.27 839.583 1032.27 829.23" fill="#47C5FB"/>
<path d="M942.454 467.57C979.848 460.63 1020.11 473.16 1047.49 496.32C1074.88 519.48 1090.12 552.14 1094.05 585.15C1100.37 637.68 1083.41 698.36 1050.05 742.48" stroke="#CCDDE2" stroke-width="4.57" stroke-miterlimit="10"/>
<path d="M607.518 256.39C670.163 236.79 745.262 254.17 804.014 389.39C823.207 433.58 847.583 454.39 881.924 456.99" stroke="#CCDDE2" stroke-width="4.57" stroke-miterlimit="10"/>
<path d="M368.1 321.38C368.1 321.38 438.026 314.38 438.452 388.87L634.2 339.39L664.935 331C664.935 331 620.837 284.56 569.965 276.57C570.513 281.083 571.543 285.542 573.04 289.89C575.667 297.89 566.958 302.59 554.873 305.57C542.789 308.55 518.32 290.92 514.116 275.37C514.116 275.37 520.152 270.64 497.665 274.03C475.178 277.42 406.945 291.18 368.1 321.38Z" fill="#2E2E2E"/>
<path d="M64.5105 682.88C66.4191 683.773 68.5517 684.243 70.7198 684.25C72.6737 684.248 74.602 683.864 76.3625 683.129C78.1231 682.393 79.6709 681.324 80.8919 680L125.014 633.05L160.622 594.26L131.477 580.07C128.456 578.59 124.883 578.212 121.541 579.018C118.199 579.825 115.362 581.749 113.655 584.37L59.315 667.2C58.4519 668.522 57.9013 669.98 57.6956 671.489C57.49 672.998 57.6333 674.527 58.1171 675.988C58.6009 677.448 59.4156 678.81 60.5135 679.993C61.6112 681.177 62.9701 682.158 64.5105 682.88Z" fill="#2E2E2E"/>
<path d="M736.128 904.39L772.854 935.75C776.03 938.472 780.313 939.998 784.777 940H876.672C880.449 940.02 884.09 938.775 886.836 936.524C889.582 934.273 891.224 931.19 891.419 927.916C891.612 924.641 890.345 921.428 887.88 918.944C885.415 916.46 881.94 914.897 878.181 914.58L827.194 910L736.128 904.39Z" fill="#2E2E2E"/>
<path d="M566.923 273V275.16V275.71C587.242 280.133 606.375 287.944 623.256 298.71C625.986 300.45 628.659 302.21 631.32 304.07C631.389 296.61 630.652 289.12 627.864 282.07C625.612 276.012 621.382 270.651 615.687 266.64C610.676 263.17 604.743 260.94 598.776 258.93C592.809 256.92 586.957 255.16 581.496 252.45C576.888 250.256 572.862 247.248 569.677 243.62C568.563 242.307 567.869 240.761 567.666 239.14C567.464 237.519 567.761 235.88 568.525 234.39C567.988 234.359 567.457 234.268 566.946 234.12L566.923 273Z" fill="#47C5FB"/>
<path d="M566.923 273V275.16V275.71C587.242 280.133 606.375 287.944 623.256 298.71C625.986 300.45 628.659 302.21 631.32 304.07C631.389 296.61 630.652 289.12 627.864 282.07C625.612 276.012 621.382 270.651 615.687 266.64C610.676 263.17 604.743 260.94 598.776 258.93C592.809 256.92 586.957 255.16 581.496 252.45C576.888 250.256 572.862 247.248 569.677 243.62C568.563 242.307 567.869 240.761 567.666 239.14C567.464 237.519 567.761 235.88 568.525 234.39C567.988 234.359 567.457 234.268 566.946 234.12L566.923 273Z" fill="#47C5FB"/>
<path d="M286.238 441.5C293.867 446.251 302.354 449.864 311.352 452.19C315.211 453.19 306.087 456.93 310.05 457.6C294.372 425.48 305.557 376.1 355.163 331.04C363.607 323.36 383.029 313.63 392.603 306.87C408.005 296 424.859 294.59 440.987 288.07C448.195 285.181 455.596 282.67 463.151 280.55C476.582 276.676 490.443 274.035 504.508 272.67C507.699 272.33 510.855 272.09 514.046 271.94C513.268 267.179 513.423 262.337 514.507 257.62C517.445 244.68 522.571 237.25 531.902 227.05C537.755 220.63 546.878 205.28 534.702 199.99C527.029 196.67 526.327 189.88 529.933 185.74C532.985 182.2 539.149 180.59 546.775 184.74C552.039 187.66 558.295 187.85 564.308 186.42C568.997 184.05 573.061 180.855 576.243 177.04C585.079 166.04 585.39 149.39 571.577 141.32C564.032 136.91 554.424 135.84 545.404 136.69C541.374 137.095 537.404 137.869 533.561 139C533.545 138.994 533.528 138.991 533.509 138.991C533.492 138.991 533.474 138.994 533.458 139C517.145 146.64 505.464 160.77 499.854 176.69C496.559 186.1 492.838 195.42 488.484 204.55C484.912 212.04 482.424 221.15 474.452 226.26C471.129 228.403 467.351 229.956 463.335 230.83C448.29 239.11 427.416 234.33 410.965 232.57C397.811 231.009 384.418 232.185 371.89 236C357.858 242.15 345.797 252 336.005 264.77C319.877 285.93 336.95 316.44 309.912 333.13C301.767 338.13 292.333 341.2 283.416 345.13C270.652 350.77 260.376 358.77 256.586 371.13C249.017 395.89 262.415 426.49 286.238 441.5Z" fill="#47C5FB"/>
<path d="M619.775 622.62L827.768 909.71L739.064 906.07L705.979 879.87H668.159C668.159 879.87 565.078 748.65 541.439 726.41C517.8 704.17 541.439 647.8 541.439 647.8L619.775 622.62Z" fill="white"/>
<path d="M947.475 939.99H307.643" stroke="black" stroke-width="4.57" stroke-miterlimit="10"/>
<path d="M590.386 167C592.03 169.956 593.434 173.006 594.591 176.13C596.273 181.22 594.453 184.36 597.01 189.2C597.886 190.87 599.153 193.7 600.466 196.57C600.846 195.9 601.204 195.35 601.411 194.92C611.445 175.53 598.254 166.18 591.907 162.98C591.515 164.351 591.007 165.695 590.386 167Z" fill="#47C5FB"/>
<path d="M590.386 167C592.03 169.956 593.434 173.006 594.591 176.13C596.273 181.22 594.453 184.36 597.01 189.2C597.886 190.87 599.153 193.7 600.466 196.57C600.846 195.9 601.204 195.35 601.411 194.92C611.445 175.53 598.254 166.18 591.907 162.98C591.515 164.351 591.007 165.695 590.386 167Z" fill="#47C5FB"/>
<path d="M495.534 686.44C484.809 719.17 467.506 752.36 453.164 773.34C442.794 788.478 426.211 799.65 406.745 804.614C387.279 809.577 366.369 807.965 348.216 800.1L190.795 732.29V701.6L125.016 633.09L80.895 680C79.6695 681.317 78.1196 682.379 76.3594 683.107C74.599 683.836 72.6731 684.213 70.7229 684.21C68.4344 684.199 66.1888 683.67 64.208 682.675C62.2271 681.68 60.5795 680.254 59.4278 678.537C58.2762 676.821 57.6603 674.873 57.6411 672.886C57.6219 670.9 58.1998 668.943 59.3181 667.21L113.658 584.42C115.366 581.8 118.202 579.875 121.543 579.069C124.885 578.262 128.458 578.641 131.479 580.12L160.625 594.31L327.665 675.52C330.443 676.87 333.55 677.627 336.732 677.731C339.913 677.834 343.077 677.28 345.964 676.114C348.85 674.948 351.376 673.204 353.333 671.025C355.292 668.846 356.626 666.294 357.225 663.58L377.016 573.58" stroke="black" stroke-width="4.57" stroke-miterlimit="10"/>
<path d="M423.086 634.37L465.883 664.59C510.925 695.437 550.126 732.216 582.062 773.59L667.563 880.16H805.573" stroke="black" stroke-width="4.57" stroke-miterlimit="10"/>
<path d="M707.824 880.18L736.129 904.39L772.855 935.75C776.032 938.472 780.315 939.999 784.778 940H876.673C880.45 940.02 884.091 938.775 886.837 936.525C889.583 934.274 891.225 931.191 891.42 927.916C891.614 924.642 890.346 921.428 887.881 918.945C885.415 916.461 881.942 914.898 878.182 914.58L827.195 910L581.058 570.25C568.386 552.71 557.097 523.84 566.923 504.93C604.352 433 601.115 363.32 601.115 363.32" stroke="black" stroke-width="4.57" stroke-miterlimit="10"/>
<path d="M566.921 228V272.7V274.86V275.41C572.209 282.11 574.881 291.61 569.824 298.73C563.062 308.26 548.12 306.68 538.639 301.35C535.855 299.781 533.195 298.05 530.679 296.17C522.254 289.813 516.803 280.998 515.357 271.39C514.58 266.632 514.732 261.794 515.807 257.08C518.767 244.15 523.871 236.72 533.236 226.5C539.089 220.09 548.212 204.73 536.013 199.44C521.739 193.26 531.624 175.17 548.086 184.21C560.85 191.21 579.19 182.48 586.77 173.07C595.606 162.07 595.928 145.42 582.104 137.35C574.559 132.94 564.951 131.87 555.942 132.72C528.467 135.34 508.929 153.98 501.107 176.14C497.812 185.55 494.091 194.87 489.748 204C486.166 211.5 483.677 220.6 475.717 225.71C460.568 235.55 438.611 230.4 421.458 228.58C385.746 224.77 356.946 238.5 337.27 264.2C321.142 285.36 338.214 315.87 311.165 332.56C303.032 337.56 293.597 340.63 284.669 344.56C271.894 350.19 261.629 358.2 257.828 370.56C250.259 395.4 263.657 426.01 287.469 441.02C298.378 447.9 311.142 452.02 324.402 454.26" stroke="black" stroke-width="4.57" stroke-miterlimit="10"/>
<path d="M637.415 309.82C637.484 309.25 637.519 308.7 637.542 308.16C638.141 298.35 638.072 288.16 634.386 278.77C632.129 272.717 627.899 267.361 622.209 263.35C617.175 259.88 611.253 257.63 605.309 255.63C599.365 253.63 593.478 251.87 588.029 249.15C583.413 246.971 579.387 243.961 576.221 240.32C575.101 239.014 574.4 237.474 574.188 235.857C573.975 234.239 574.259 232.602 575.012 231.11" stroke="black" stroke-width="4.57" stroke-miterlimit="10"/>
<path d="M190.805 701.61V608.97" stroke="black" stroke-width="4.57" stroke-miterlimit="10"/>
<path d="M555.854 218C559.99 223.13 565.6 228.67 572.673 230.68C581.832 233.26 587.995 226.52 591.278 219.95C593.248 216.04 594.596 211.88 596.186 207.84C596.704 206.51 597.015 205.84 598.778 205.76C600.54 205.68 602.372 206 604.169 206C604.305 206.006 604.441 205.978 604.559 205.919C604.678 205.86 604.775 205.772 604.837 205.667C604.9 205.562 604.928 205.443 604.915 205.325C604.903 205.207 604.852 205.094 604.768 205C602.349 201.81 598.743 193.09 596.911 189.6C594.377 184.76 596.209 181.6 594.504 176.54C593.339 173.418 591.943 170.365 590.322 167.4" stroke="black" stroke-width="4.57" stroke-miterlimit="10"/>
<path d="M593.015 158.06C593.015 158.06 617.979 166.36 605.088 191.34C604.293 192.86 602.335 196.01 601.413 197.44" stroke="black" stroke-width="4.57" stroke-miterlimit="10"/>
<path d="M591.63 219.19C589.634 219.425 587.605 219.021 585.927 218.053C584.247 217.085 583.032 215.619 582.506 213.93" stroke="black" stroke-width="4.57" stroke-miterlimit="10"/>
<path d="M595.858 185.73C590.686 182.08 585.018 186.73 581.562 190.14" stroke="black" stroke-width="4.57" stroke-miterlimit="10"/>
<path d="M566.923 275.41C587.252 279.834 606.395 287.646 623.291 298.41C628.198 301.49 632.933 304.77 637.529 308.18C655.662 321.54 671.617 337 687.123 352.63" stroke="black" stroke-width="4.57" stroke-miterlimit="10"/>
<path d="M710.381 500.08C710.287 500.031 710.202 499.97 710.127 499.9C689.783 482.24 669.289 464.71 648.887 447.11C631.791 432.37 609.558 417.28 599.121 397.94" stroke="black" stroke-width="4.57" stroke-miterlimit="10"/>
<path d="M471.834 627.23C473.493 626.77 475.071 626.31 476.569 625.83C476.595 625.838 476.623 625.838 476.649 625.83" stroke="black" stroke-width="4.57" stroke-miterlimit="10"/>
<path d="M316.975 419.57L438.454 388.87L661.538 332.48C672.255 329.801 683.758 330.915 693.533 335.577C703.308 340.239 710.558 348.07 713.701 357.36L761.613 500.23C764.7 509.532 763.422 519.516 758.059 528.003C752.695 536.491 743.682 542.791 732.985 545.53L495.236 605.61L472.541 611.33L449.501 617.18L426.807 622.93L408.375 627.56L342.941 644.1C332.223 646.783 320.717 645.672 310.941 641.009C301.165 636.347 293.916 628.512 290.779 619.22L242.867 476.35C239.776 467.053 241.051 457.072 246.414 448.589C251.777 440.106 260.789 433.811 271.483 431.08L273.199 430.65L274.639 430.28L305.19 422.55L316.975 419.57Z" fill="white"/>
<path d="M335.233 423.3L447.784 394.86L654.498 342.61C664.436 340.112 675.108 341.135 684.177 345.456C693.247 349.776 699.973 357.042 702.882 365.66L747.258 498C750.116 506.619 748.935 515.869 743.972 523.736C739.009 531.602 730.666 537.448 720.762 540L500.442 595.68L479.418 601L458.025 606.41L437.001 611.75L419.905 616L349.944 634C340.007 636.501 329.333 635.479 320.262 631.158C311.192 626.837 304.467 619.57 301.56 610.95L257.208 478.54C254.331 469.921 255.503 460.663 260.468 452.792C265.434 444.921 273.788 439.078 283.704 436.54L285.294 436.14L286.63 435.81L324.312 426.01L335.233 423.3Z" fill="#47C5FB"/>
<path d="M347.422 428L451.782 401.63L651.078 350.98C660.285 348.68 670.167 349.636 678.563 353.64C686.96 357.644 693.189 364.371 695.891 372.35L737.063 495.1C739.715 503.092 738.617 511.67 734.009 518.962C729.401 526.254 721.657 531.667 712.468 534.02L500.569 587.87L481.077 592.79L461.251 597.79L441.748 602.73L425.954 606.73L354.749 624.93C345.535 627.252 335.638 626.305 327.228 622.299C318.818 618.292 312.582 611.553 309.89 603.56L268.706 480.82C266.051 472.831 267.149 464.254 271.757 456.965C276.366 449.676 284.112 444.267 293.301 441.92L301.112 439.99L302.356 439.67L337.296 430.59L347.422 428Z" fill="#47C5FB"/>
<path d="M502.537 501.05L314.98 547C313.98 547.245 312.934 547.317 311.901 547.211C310.869 547.105 309.872 546.823 308.966 546.382C308.06 545.941 307.262 545.349 306.62 544.64C305.978 543.931 305.502 543.119 305.222 542.25C305.016 541.65 304.911 541.027 304.911 540.4C304.918 538.906 305.484 537.454 306.523 536.262C307.561 535.071 309.017 534.203 310.671 533.79L498.228 487.87C497.473 490.112 497.437 492.491 498.125 494.75C498.869 497.174 500.401 499.36 502.537 501.05Z" fill="#47C5FB"/>
<path d="M546.349 485.09C546.346 486.589 545.784 488.047 544.745 489.244C543.706 490.441 542.248 491.314 540.589 491.73L527.053 495.05C527.823 492.719 527.832 490.248 527.077 487.913C526.321 485.579 524.834 483.472 522.779 481.83L536.315 478.52C538.332 478.033 540.49 478.259 542.317 479.149C544.143 480.04 545.488 481.521 546.061 483.27C546.264 483.86 546.36 484.474 546.349 485.09Z" fill="#D7E8F0"/>
<path d="M554.872 511.31C554.867 512.805 554.302 514.257 553.263 515.449C552.225 516.641 550.768 517.508 549.112 517.92L362.719 563.56C363.836 561.317 364.199 558.846 363.765 556.432C363.331 554.018 362.118 551.76 360.265 549.92L544.804 504.7C546.822 504.216 548.979 504.444 550.804 505.333C552.629 506.223 553.976 507.703 554.55 509.45C554.764 510.052 554.874 510.679 554.872 511.31Z" fill="#D7E8F0"/>
<path d="M340.3 569L323.503 573.11C322.479 573.46 321.383 573.621 320.282 573.581C319.183 573.542 318.105 573.303 317.118 572.88C316.131 572.457 315.256 571.86 314.551 571.126C313.846 570.393 313.325 569.539 313.022 568.621C312.72 567.702 312.642 566.739 312.793 565.793C312.945 564.846 313.323 563.938 313.904 563.126C314.484 562.314 315.254 561.617 316.163 561.078C317.072 560.54 318.1 560.173 319.183 560L334.159 556.34C333.837 558.135 333.935 559.968 334.447 561.73C335.345 564.678 337.418 567.254 340.3 569Z" fill="#47C5FB"/>
<path d="M507.273 556.77L333.252 599.4C331.234 599.876 329.083 599.645 327.259 598.756C325.436 597.868 324.089 596.393 323.506 594.65C323.303 594.057 323.206 593.44 323.218 592.82C323.222 591.322 323.786 589.865 324.824 588.668C325.863 587.47 327.32 586.598 328.978 586.18L502.745 543.65C502.018 545.986 502.058 548.452 502.857 550.77C503.658 553.088 505.186 555.166 507.273 556.77Z" fill="#47C5FB"/>
<path d="M564.653 537.52C564.655 539.016 564.093 540.472 563.053 541.665C562.012 542.859 560.552 543.724 558.893 544.13L531.602 550.8L507.295 556.8C505.209 555.195 503.679 553.117 502.879 550.799C502.08 548.481 502.041 546.016 502.767 543.68L527.535 537.62L554.607 530.98C556.622 530.486 558.78 530.706 560.609 531.591C562.438 532.475 563.789 533.953 564.365 535.7C564.557 536.292 564.655 536.905 564.653 537.52Z" fill="#D7E8F0"/>
<path d="M527.05 495.05C526.146 497.794 524.227 500.204 521.587 501.907C518.948 503.61 515.738 504.512 512.449 504.474C509.161 504.435 505.979 503.458 503.394 501.693C500.809 499.929 498.966 497.474 498.147 494.71C497.651 493.056 497.536 491.334 497.807 489.642C498.079 487.95 498.731 486.321 499.728 484.848C500.726 483.375 502.047 482.087 503.619 481.058C505.189 480.028 506.979 479.278 508.883 478.85C511.304 478.303 513.844 478.291 516.27 478.815C518.697 479.339 520.934 480.382 522.776 481.85C524.832 483.492 526.32 485.598 527.074 487.933C527.829 490.268 527.821 492.739 527.05 495.07V495.05Z" fill="white"/>
<g opacity="0.72">
<path opacity="0.72" d="M519.009 488.81C519.194 490.385 518.858 491.974 518.042 493.39C517.649 494.09 517.187 494.76 516.659 495.39C516.371 495.72 514.862 497.61 514.424 497.53C511.452 497.07 507.201 495.06 505.83 492.37C505.625 491.947 505.482 491.504 505.404 491.05C505.298 490.391 505.425 489.72 505.766 489.125C506.107 488.53 506.647 488.038 507.315 487.713C507.985 487.389 508.75 487.248 509.513 487.308C510.276 487.368 510.999 487.626 511.59 488.05C511.909 487.373 512.473 486.804 513.197 486.43C513.921 486.055 514.766 485.896 515.604 485.975C516.441 486.054 517.227 486.367 517.841 486.868C518.455 487.369 518.865 488.029 519.009 488.75V488.81Z" fill="#47C5FB"/>
</g>
<path d="M362.72 563.56C361.491 566.055 359.393 568.154 356.721 569.562C354.049 570.97 350.936 571.617 347.819 571.412C344.701 571.207 341.736 570.16 339.339 568.419C336.941 566.677 335.232 564.328 334.45 561.7C333.938 559.939 333.84 558.106 334.162 556.31C334.647 553.835 335.943 551.533 337.896 549.681C339.849 547.83 342.377 546.506 345.175 545.87C347.877 545.248 350.729 545.301 353.398 546.023C356.068 546.744 358.448 548.106 360.266 549.95C362.118 551.79 363.331 554.048 363.766 556.462C364.2 558.876 363.837 561.348 362.72 563.59V563.56Z" fill="white"/>
<g opacity="0.72">
<path opacity="0.72" d="M355.322 555.79C355.504 557.367 355.164 558.955 354.343 560.37C353.961 561.076 353.498 561.746 352.96 562.37C352.672 562.7 351.163 564.59 350.737 564.51C347.753 564.05 343.514 562.04 342.143 559.34C341.932 558.92 341.788 558.475 341.717 558.02C341.611 557.362 341.737 556.691 342.078 556.095C342.419 555.5 342.96 555.008 343.628 554.684C344.297 554.359 345.063 554.218 345.826 554.278C346.588 554.338 347.313 554.597 347.903 555.02C348.131 554.536 348.483 554.103 348.935 553.756C349.387 553.409 349.925 553.157 350.506 553.02C351.034 552.913 351.58 552.9 352.113 552.982C352.646 553.065 353.154 553.242 353.604 553.501C354.056 553.761 354.44 554.098 354.736 554.491C355.031 554.885 355.231 555.327 355.322 555.79Z" fill="#47C5FB"/>
</g>
<path d="M531.581 550.8C530.532 553.793 528.272 556.356 525.215 558.014C522.159 559.672 518.515 560.314 514.956 559.821C511.397 559.328 508.163 557.733 505.855 555.331C503.545 552.93 502.316 549.883 502.393 546.756C502.47 543.628 503.849 540.63 506.274 538.316C508.7 536.003 512.009 534.53 515.589 534.169C519.17 533.809 522.779 534.586 525.75 536.356C528.721 538.126 530.854 540.771 531.754 543.8C532.435 546.103 532.375 548.524 531.581 550.8Z" fill="white"/>
<g opacity="0.72">
<path opacity="0.72" d="M523.607 544.44C523.781 546.016 523.441 547.603 522.628 549.02C522.239 549.723 521.776 550.392 521.245 551.02C520.957 551.35 519.448 553.24 519.022 553.16C516.038 552.7 511.787 550.69 510.416 548C510.21 547.574 510.066 547.127 509.99 546.67C509.884 546.012 510.01 545.341 510.351 544.745C510.692 544.15 511.232 543.658 511.901 543.333C512.57 543.009 513.336 542.868 514.098 542.928C514.861 542.988 515.585 543.247 516.176 543.67C516.499 542.995 517.066 542.429 517.79 542.057C518.516 541.685 519.361 541.527 520.198 541.607C521.034 541.687 521.82 542.001 522.434 542.501C523.049 543.001 523.461 543.66 523.607 544.38V544.44Z" fill="#47C5FB"/>
</g>
<path d="M500.672 585.79C490.684 586.27 479.936 573.79 476.652 570.68C476.288 570.349 475.874 570.063 475.42 569.83L466.492 563.56L467.989 573.42C470.374 578.17 482.965 588.53 491.939 600.42C500.914 612.31 492.366 614.91 487.562 616.42C482.758 617.93 477.735 610.05 479.694 618.61C481.652 627.17 470.017 627.29 462.759 626.22C455.502 625.15 452.898 618.22 454.546 623.66C456.193 629.1 450.755 633.07 445.848 633.25C442.127 633.41 434.973 629.05 431.747 626.95C431.01 630.39 428.349 636.85 419.075 633.41C406.761 628.84 394.803 601.53 385.667 573.58C376.532 545.63 317.365 494.65 308.737 440.67C308.737 440.58 308.737 440.45 308.737 440.36C308.276 436.28 308.041 432.17 308.034 428.03C308.036 420.161 308.915 412.311 310.661 404.59C311.907 398.972 313.574 393.43 315.649 388L413.338 404.84C412.67 405.48 412.002 406.12 411.334 406.79C388.467 429.84 401.83 459.07 419.225 480.53C436.874 502.37 457.184 523.95 480.396 541.53C487.212 546.679 493.58 552.258 499.45 558.22L498.183 558.83C499.561 561.161 501.1 563.419 502.791 565.59C509.692 573.85 510.706 585.3 500.672 585.79Z" fill="white"/>
<path d="M438.454 388.87L661.538 332.48C672.256 329.801 683.758 330.915 693.533 335.577C703.308 340.239 710.558 348.07 713.701 357.36L761.613 500.23C764.7 509.532 763.422 519.516 758.059 528.003C752.695 536.491 743.682 542.791 732.985 545.53L495.236 605.61" stroke="black" stroke-width="4.57" stroke-miterlimit="10"/>
<path d="M408.317 627.56L342.941 644.1C332.223 646.784 320.717 645.673 310.941 641.01C301.165 636.347 293.916 628.512 290.779 619.22L242.867 476.35C239.776 467.053 241.051 457.072 246.414 448.59C251.777 440.107 260.789 433.811 271.483 431.08L273.199 430.65L274.639 430.28L305.19 422.55" stroke="black" stroke-width="4.57" stroke-miterlimit="10"/>
<path d="M472.539 611.33H472.504" stroke="black" stroke-width="4.57" stroke-miterlimit="10"/>
<path d="M426.733 622.93H426.699" stroke="black" stroke-width="4.57" stroke-miterlimit="10"/>
<path d="M439.164 568.16C442.379 583.38 456.986 599.87 472.48 611.29C476.985 614.61 486.938 618.65 492.341 614.86C503.999 606.7 484.069 593.26 478.574 587.86C471.904 581.3 466.513 573.61 464.508 564.94C464.335 564.405 464.37 563.835 464.612 563.32C464.846 563.04 465.178 562.833 465.558 562.731C465.938 562.628 466.346 562.635 466.72 562.75C467.465 562.988 468.134 563.371 468.679 563.87C474.992 568.87 480.625 574.4 486.339 579.87C490.382 583.78 500.9 588.63 506.061 583.65C517.259 572.84 485.567 547.65 477.457 541.47C454.267 523.87 433.923 502.29 416.274 480.47C398.879 459.01 385.516 429.78 408.383 406.73C420.318 394.73 437.989 389.49 453.772 382.4C479.231 371 484.473 352 484.473 352" stroke="black" stroke-width="4.57" stroke-miterlimit="10"/>
<path d="M424.373 583.63C424.373 583.63 437.551 616.24 465.545 626.39C467.207 627.032 469.015 627.341 470.834 627.294C472.652 627.247 474.435 626.846 476.051 626.12C479.507 624.44 482.33 621.12 477.48 614.46" stroke="black" stroke-width="4.57" stroke-miterlimit="10"/>
<path d="M406.125 591.25C411.263 603.35 418.083 616 429.05 625C434.049 629.09 440.385 633.14 447.482 633.4C456.03 633.71 456.698 626.23 453.242 621.14C452.495 620.049 451.597 619.042 450.569 618.14" stroke="black" stroke-width="4.57" stroke-miterlimit="10"/>
<path d="M429.048 625C429.048 625 428.426 638 416.111 633.41C403.797 628.82 391.804 601.52 382.703 573.56C373.603 545.6 314.102 494.47 305.658 440.36L305.75 441.02C305.75 440.9 305.75 440.81 305.75 440.69C304.311 428.639 304.948 416.468 307.639 404.58C334.308 287.42 514.112 271.92 514.112 271.92" stroke="black" stroke-width="4.57" stroke-miterlimit="10"/>
<path d="M780.514 519.35C775.538 532.1 763.234 540.23 748.074 542.21C741.577 543.04 734.573 543.8 728.49 541.21C724.032 539.32 719.643 534.91 720.979 530.28C718.996 530.302 717.018 530.107 715.092 529.7C712.454 529.15 709.724 528.06 708.56 525.95C707.397 523.84 708.215 520.9 710.104 519.01C712.163 517.248 714.698 515.962 717.477 515.27C718.152 515.054 718.841 514.87 719.539 514.72C717.289 514.737 715.042 514.613 712.811 514.35C708.526 513.87 703.722 512.28 702.443 508.72C702.089 507.51 702.092 506.242 702.455 505.034C702.818 503.825 703.527 502.716 704.517 501.81C706.533 500.012 709.06 498.708 711.844 498.03C712.132 497.97 712.374 497.88 712.65 497.82C707.57 497.76 702.374 496.88 700.128 492.7C699.407 491.215 699.202 489.578 699.539 487.993C699.877 486.408 700.743 484.943 702.029 483.78C706.521 479.4 713.249 478.78 719.597 478.36C725.944 477.94 733.663 477.75 741.139 477.63C742.763 477.593 744.355 477.233 745.795 476.58C747.234 475.926 748.483 474.995 749.445 473.858C750.406 472.722 751.055 471.409 751.343 470.021C751.63 468.633 751.549 467.207 751.104 465.85C748.189 456.85 746.957 447.03 753.097 444.63C762.255 441.03 768.568 450.84 771.195 456.87C779.224 475.35 788.164 499.83 780.514 519.35Z" fill="white"/>
<path d="M741.888 511.92C734.481 513.29 726.981 514.69 719.47 514.75C718.772 514.901 718.084 515.085 717.408 515.3C714.63 515.992 712.094 517.277 710.035 519.04C708.146 520.93 707.236 523.73 708.492 525.98C709.747 528.23 712.385 529.18 715.023 529.73C716.951 530.136 718.929 530.331 720.91 530.31C724.965 530.238 729 529.799 732.949 529C733.617 528.88 741.796 528.06 742.43 527.93" stroke="black" stroke-width="4.57" stroke-miterlimit="10"/>
<path d="M712.57 497.85C712.293 497.91 712.051 498 711.763 498.06C708.98 498.737 706.451 500.041 704.437 501.84C703.446 502.746 702.736 503.854 702.374 505.063C702.012 506.271 702.007 507.54 702.363 508.75C703.699 512.31 708.503 513.9 712.731 514.38C714.96 514.642 717.209 514.766 719.459 514.75" stroke="black" stroke-width="4.57" stroke-miterlimit="10"/>
<path d="M748.109 497.18C747.544 497.18 747.014 497.18 746.462 497.18L719.689 497.7C717.592 497.7 715.081 497.88 712.57 497.82C707.489 497.76 702.294 496.88 700.047 492.7C699.325 491.215 699.121 489.578 699.459 487.993C699.796 486.408 700.662 484.943 701.948 483.78C706.441 479.4 713.169 478.78 719.516 478.36C725.864 477.94 733.594 477.77 741.07 477.63C742.699 477.598 744.299 477.241 745.745 476.589C747.191 475.936 748.445 475.003 749.411 473.864C750.377 472.724 751.028 471.407 751.316 470.014C751.604 468.621 751.519 467.19 751.07 465.83C748.155 456.83 746.899 447 753.051 444.6C762.209 441 768.522 450.81 771.149 456.84C779.213 475.32 788.164 499.84 780.515 519.32C775.527 532.07 763.235 540.22 748.086 542.18C741.6 543.02 734.573 543.78 728.502 541.18C724.067 539.3 719.666 534.9 720.991 530.27" stroke="black" stroke-width="4.57" stroke-miterlimit="10"/>
<g opacity="0.54">
<path opacity="0.54" d="M535.945 444.79C535.743 443.635 535.439 442.495 535.035 441.38L530.508 428.67C529.125 424.78 527.593 420.67 524.068 417.99C517.536 412.99 507.468 414.86 499.116 417.04L478.622 422.38C473.91 423.61 469.129 424.87 465.016 427.2C460.904 429.53 457.471 433.15 456.826 437.38C456.342 440.5 457.402 443.62 458.45 446.64L462.666 458.84C464.06 462.84 465.604 467.06 469.233 469.84C475.695 474.72 485.568 472.89 493.793 470.78L514.76 465.41C527.409 462.13 537.984 456.26 535.945 444.79Z" fill="white"/>
<path opacity="0.54" d="M507.189 446.28C508.036 445.508 508.629 444.553 508.909 443.516C509.189 442.478 509.146 441.394 508.783 440.375C508.42 439.357 507.752 438.441 506.847 437.721C505.94 437.001 504.831 436.504 503.629 436.28L497.132 435L490.646 433.72C489.453 433.47 488.204 433.501 487.029 433.808C485.854 434.116 484.794 434.69 483.959 435.471C483.123 436.252 482.543 437.212 482.277 438.252C482.011 439.293 482.068 440.376 482.444 441.39L484.414 446.91L486.372 452.43C486.719 453.454 487.373 454.379 488.269 455.11C489.165 455.841 490.268 456.352 491.466 456.589C492.664 456.826 493.914 456.782 495.087 456.461C496.259 456.139 497.31 455.552 498.134 454.76L502.661 450.52L507.189 446.28Z" fill="#47C5FB"/>
</g>
<path d="M971.192 868.27H914.711" stroke="#CCDDE2" stroke-width="4.57" stroke-miterlimit="10"/>
<path d="M905.091 561.73C939.631 561.73 967.633 537.424 967.633 507.44C967.633 477.457 939.631 453.15 905.091 453.15C870.549 453.15 842.549 477.457 842.549 507.44C842.549 537.424 870.549 561.73 905.091 561.73Z" fill="#47C5FB"/>
<path d="M894.966 531.78C894.238 531.78 893.518 531.656 892.845 531.414C892.174 531.172 891.563 530.817 891.049 530.37L874.921 516.37C873.882 515.469 873.298 514.247 873.297 512.973C873.296 511.699 873.879 510.476 874.915 509.575C875.953 508.673 877.36 508.166 878.829 508.165C880.296 508.164 881.704 508.669 882.743 509.57L895.001 520.21L927.475 492C928.513 491.098 929.92 490.591 931.389 490.59C932.856 490.589 934.264 491.094 935.303 491.995C936.342 492.895 936.926 494.117 936.928 495.391C936.929 496.665 936.347 497.888 935.309 498.79L898.871 530.42C897.828 531.303 896.423 531.792 894.966 531.78Z" fill="white"/>
</svg>
