<?xml version="1.0" standalone="no"?>
<!DOCTYPE svg PUBLIC "-//W3C//DTD SVG 20010904//EN"
 "http://www.w3.org/TR/2001/REC-SVG-20010904/DTD/svg10.dtd">
<svg version="1.0" xmlns="http://www.w3.org/2000/svg"
 width="1280.000000pt" height="1054.000000pt" viewBox="0 0 1280.000000 1054.000000"
 preserveAspectRatio="xMidYMid meet">
<metadata>
Created by potrace 1.15, written by Peter Selinger 2001-2017
</metadata>
<g transform="translate(0.000000,1054.000000) scale(0.100000,-0.100000)"
fill="#2196f3" stroke="none">
<path d="M11605 10521 c-27 -10 -81 -34 -120 -53 -108 -55 -276 -122 -548
-219 -408 -146 -514 -192 -932 -401 -467 -234 -617 -316 -814 -445 -439 -287
-853 -658 -1554 -1393 -568 -595 -762 -793 -939 -960 -315 -299 -589 -522
-879 -717 -391 -262 -617 -376 -1384 -698 -587 -246 -785 -342 -1410 -678
-989 -532 -1383 -854 -2396 -1957 -189 -206 -409 -442 -488 -523 l-145 -148
19 -32 c77 -133 272 -404 349 -484 118 -124 168 -148 436 -214 387 -94 430
-114 670 -324 396 -345 923 -728 1420 -1030 155 -95 246 -140 350 -175 605
-205 1561 70 2365 680 467 354 728 643 910 1009 138 279 220 589 250 955 18
211 4 611 -31 891 -43 345 -76 486 -185 775 -136 363 -187 549 -196 710 -5 84
-3 101 17 148 40 92 154 182 454 357 44 26 60 30 126 29 92 0 190 -28 313 -90
109 -55 179 -101 322 -214 595 -470 1117 -753 1625 -880 298 -75 622 -93 910
-50 1011 148 1972 806 2416 1655 207 396 295 820 253 1226 -31 307 -103 555
-339 1169 -168 436 -247 668 -280 818 -42 192 -36 347 21 492 16 41 29 93 29
116 0 53 -35 121 -110 214 -110 135 -138 174 -190 265 -104 182 -181 225 -315
176z"/>
</g>
</svg>
